<svg xmlns:dc="http://purl.org/dc/elements/1.1/" xmlns:cc="http://creativecommons.org/ns#" xmlns:rdf="http://www.w3.org/1999/02/22-rdf-syntax-ns#" xmlns:svg="http://www.w3.org/2000/svg" xmlns="http://www.w3.org/2000/svg" xmlns:sodipodi="http://sodipodi.sourceforge.net/DTD/sodipodi-0.dtd" xmlns:inkscape="http://www.inkscape.org/namespaces/inkscape" viewBox="0 0 16.933333 21.1666675" version="1.1" x="0px" y="0px"><g transform="translate(0,-280.06665)"><path d="m 11.539801,287.40184 c 0.097,0.0964 0.09742,0.25343 0,0.35045 -0.09647,0.097 -0.253429,0.0974 -0.350456,0 l -0.628121,-0.62798 c -0.09702,-0.0964 -0.09745,-0.25343 0,-0.35046 0.09647,-0.097 0.253455,-0.0974 0.350455,0 z m 4.296489,4.35073 c 0.136106,-0.0161 0.25962,0.0814 0.27568,0.2175 0.01614,0.13613 -0.08136,0.25965 -0.217496,0.27571 -0.35969,0.043 -0.694059,0.16097 -1.039249,0.28279 -0.921848,0.32537 -1.916089,0.6762 -3.766426,-0.0656 -1.046233,-0.4196 -1.7188851,-0.1858 -2.4398001,0.0648 -0.928066,0.32262 -1.928631,0.67038 -3.762007,-0.0648 -1.178452,-0.47265 -2.34968,-0.0222 -3.088984,0.26195 -0.300157,0.11541 -0.537392,0.20665 -0.71684,0.21673 -0.13669003,0.007 -0.25372003,-0.0973 -0.26118203,-0.23398 -0.0074,-0.1367 0.09729,-0.25372 0.23398103,-0.26118 0.105204,-0.006 0.309179,-0.0843 0.567344,-0.18364 0.809607,-0.31127 2.092494,-0.80455 3.450157,-0.26012 1.661575,0.66633 2.570987,0.35032 3.414488,0.0571 0.811882,-0.28224 1.5693631,-0.54548 2.7872921,-0.0571 1.676525,0.67218 2.579507,0.3535 3.416976,0.0579 0.372231,-0.13135 0.732901,-0.25864 1.146066,-0.30804 z m 0,3.79357 c 0.136106,-0.0161 0.25962,0.0814 0.27568,0.2175 0.01614,0.1361 -0.08136,0.25962 -0.217496,0.27568 -0.35969,0.043 -0.694059,0.16101 -1.039249,0.28282 -0.921848,0.32538 -1.916089,0.67618 -3.766426,-0.0657 -1.046233,-0.41957 -1.7188851,-0.1858 -2.4398001,0.0648 -0.928066,0.32262 -1.928631,0.6704 -3.762007,-0.0648 -1.178452,-0.47254 -2.349759,-0.0222 -3.088984,0.2619 -0.300157,0.11542 -0.537392,0.20665 -0.71684,0.21673 -0.13669003,0.007 -0.25372003,-0.0973 -0.26118203,-0.23398 -0.0074,-0.1367 0.09729,-0.25372 0.23398103,-0.26121 0.105204,-0.006 0.309179,-0.0843 0.567344,-0.1836 0.809686,-0.31135 2.092574,-0.80447 3.450157,-0.26005 1.661575,0.66631 2.570987,0.3503 3.414488,0.0571 0.811882,-0.28224 1.5693631,-0.54546 2.7872921,-0.0571 1.676525,0.67215 2.579507,0.35347 3.416976,0.0579 0.372231,-0.13131 0.732901,-0.25864 1.146066,-0.30801 z m -3.270497,-11.11578 c 0.137245,0 0.24856,0.11132 0.24856,0.24858 0,0.13725 -0.111315,0.24856 -0.24856,0.24856 h -0.888535 c -0.137246,0 -0.248587,-0.11131 -0.248587,-0.24856 0,-0.13726 0.111341,-0.24858 0.248587,-0.24858 z m -1.376448,-2.82561 c 0.097,-0.097 0.254408,-0.097 0.351435,0 0.09702,0.097 0.09702,0.25441 0,0.35144 l -0.628122,0.6282 c -0.09702,0.097 -0.254434,0.097 -0.351461,0 -0.097,-0.097 -0.097,-0.25444 0,-0.35143 z M 8.2180009,280.5798 c 0,-0.13725 0.111341,-0.24856 0.248586,-0.24856 0.137246,0 0.248561,0.11131 0.248561,0.24856 v 0.88839 c 0,0.13725 -0.111315,0.2486 -0.248561,0.2486 -0.137245,0 -0.248586,-0.11135 -0.248586,-0.2486 z m -2.825819,1.37541 c -0.09647,-0.097 -0.09604,-0.25402 0,-0.35046 0.09702,-0.0965 0.254011,-0.096 0.350456,0 l 0.628068,0.62821 c 0.09644,0.097 0.09602,0.25398 0,0.35045 -0.097,0.0964 -0.253984,0.096 -0.350455,0 z m -1.025092,2.97229 c -0.137246,0 -0.24856,-0.11131 -0.24856,-0.24856 0,-0.13726 0.111314,-0.24858 0.24856,-0.24858 h 0.888535 c 0.137245,0 0.248587,0.11132 0.248587,0.24858 0,0.13725 -0.111342,0.24856 -0.248587,0.24856 z m 1.376527,2.82577 c -0.09702,0.097 -0.254434,0.097 -0.351435,0 -0.09702,-0.097 -0.09702,-0.25444 0,-0.35143 l 0.628042,-0.62799 c 0.09702,-0.097 0.254435,-0.097 0.351461,0 0.097,0.097 0.097,0.2544 0,0.35144 z m 2.971531,1.02489 c 0,0.13723 -0.111315,0.24855 -0.248561,0.24855 -0.137245,0 -0.248586,-0.11132 -0.248586,-0.24855 v -0.8882 c 0,-0.13725 0.111341,-0.24858 0.248586,-0.24858 0.137246,0 0.248561,0.11133 0.248561,0.24858 z m -0.248561,-5.75005 c 0.455712,0 0.868375,0.1849 1.167048,0.48355 0.0048,0.005 0.0093,0.01 0.01376,0.0148 0.290631,0.29759 0.4698661,0.70435 0.4698661,1.15246 0,0.4558 -0.1847921,0.86851 -0.4834661,1.16718 -0.298674,0.29869 -0.711416,0.4835 -1.167127,0.4835 -0.455235,0 -0.867606,-0.18481 -1.16636,-0.4835 -0.299363,-0.2993 -0.484526,-0.7121 -0.484526,-1.16718 0,-0.45573 0.184872,-0.86852 0.483626,-1.16728 0.0048,-0.005 0.0098,-0.009 0.01482,-0.0138 0.297616,-0.29063 0.704272,-0.46989 1.152468,-0.46989 z m 0.815614,0.83501 c -0.208686,-0.20871 -0.497068,-0.33786 -0.815614,-0.33786 -0.31312,0 -0.597057,0.12431 -0.804684,0.32596 -0.0034,0.004 -0.0074,0.008 -0.01111,0.0119 -0.208713,0.20869 -0.337914,0.49728 -0.337914,0.81582 0,0.31932 0.128777,0.6077 0.336855,0.81575 0.208686,0.20864 0.497571,0.33778 0.816883,0.33778 0.318546,0 0.606981,-0.12909 0.815693,-0.33778 0.208686,-0.20868 0.337756,-0.49714 0.337756,-0.81575 0,-0.31303 -0.124282,-0.59705 -0.325928,-0.8047 -0.004,-0.003 -0.0079,-0.007 -0.01191,-0.0111 z" style="" fill="#000000" fill-rule="evenodd" stroke-width="0.2645947"/></g><text x="0" y="31.933334" fill="#000000" font-size="5px" font-weight="bold" font-family="'Helvetica Neue', Helvetica, Arial-Unicode, Arial, Sans-serif">Created by Alvida Biersack</text><text x="0" y="36.933334" fill="#000000" font-size="5px" font-weight="bold" font-family="'Helvetica Neue', Helvetica, Arial-Unicode, Arial, Sans-serif">from the Noun Project</text></svg>