<svg xmlns:dc="http://purl.org/dc/elements/1.1/" xmlns:cc="http://creativecommons.org/ns#" xmlns:rdf="http://www.w3.org/1999/02/22-rdf-syntax-ns#" xmlns:svg="http://www.w3.org/2000/svg" xmlns="http://www.w3.org/2000/svg" xmlns:sodipodi="http://sodipodi.sourceforge.net/DTD/sodipodi-0.dtd" xmlns:inkscape="http://www.inkscape.org/namespaces/inkscape" viewBox="0 0 16.933333 21.1666675" version="1.1" x="0px" y="0px"><g transform="translate(0,-280.06665)"><path d="m 0.76181811,284.54418 c 0,0.13726 -0.11136012,0.24863 -0.24862762,0.24863 -0.1372675,0 -0.24860162,-0.11137 -0.24860162,-0.24863 0,-0.34227 0.13938494,-0.65303 0.3645927,-0.8784 v 0 c 0.2249157,-0.22491 0.53570713,-0.36411 0.87889043,-0.36411 0.341965,0 0.6525975,0.1392 0.8778843,0.36411 v 0 0 0 c 0.2245186,0.22529 0.3634014,0.5355 0.3634014,0.87713 0,0.20591 0.083517,0.39251 0.2184054,0.52739 l 0.010582,0.0111 c 0.1339078,0.12826 0.3161376,0.20718 0.5168923,0.20718 0.2066819,0 0.3931466,-0.083 0.5273975,-0.2174 v 0 0 c 0.134886,-0.13488 0.2183793,-0.3214 0.2183793,-0.52739 0,-0.34227 0.139385,-0.65303 0.3646188,-0.8784 v 0 c 0.2249427,-0.22491 0.5357862,-0.36411 0.8789695,-0.36411 0.3431822,0 0.6539477,0.1392 0.8788904,0.36411 0.005,0.005 0.0098,0.0103 0.014553,0.0159 0.2164209,0.22401 0.3495866,0.52851 0.3495866,0.86309 0,0.20599 0.083517,0.39251 0.2184063,0.52739 l 0.011112,0.0119 c 0.1333237,0.12789 0.3152625,0.20654 0.5163092,0.20654 0.2063379,0 0.3930936,-0.0833 0.5279006,-0.21787 0.134514,-0.13481 0.2178763,-0.32156 0.2178763,-0.5279 0,-0.34227 0.1393849,-0.65303 0.3646187,-0.87839 v 0 c 0.2249427,-0.22491 0.5357072,-0.36411 0.8788905,-0.36411 0.341992,0 0.6526239,0.1392 0.8779099,0.36411 v 0 0 0 c 0.224493,0.22529 0.363402,0.53549 0.363402,0.87712 0,0.20591 0.0835,0.39251 0.218379,0.52739 l 0.01058,0.0111 c 0.133881,0.12826 0.31611,0.20718 0.516888,0.20718 0.205969,0 0.392566,-0.0835 0.527455,-0.21838 l 0.01111,-0.0106 c 0.128273,-0.13389 0.207185,-0.31611 0.207185,-0.51689 0,-0.342 0.139174,-0.6526 0.364117,-0.87789 v 0 0 0 c 0.225286,-0.22451 0.535496,-0.36342 0.877117,-0.36342 0.343182,0 0.653948,0.1392 0.87889,0.36411 0.005,0.005 0.01005,0.0103 0.01455,0.0159 0.216394,0.22401 0.349587,0.52851 0.349587,0.86309 0,0.206 0.0835,0.39251 0.218379,0.52739 l 0.01111,0.0119 c 0.133324,0.12789 0.315289,0.20655 0.516335,0.20655 0.206339,0 0.393068,-0.0833 0.527875,-0.21788 0.134542,-0.1348 0.217901,-0.32156 0.217901,-0.5279 0,-0.13727 0.111334,-0.24861 0.248601,-0.24861 0.137268,0 0.248628,0.11134 0.248628,0.24861 0,0.34242 -0.139253,0.65297 -0.364116,0.87791 v 0 c -0.224915,0.22486 -0.535468,0.36411 -0.877883,0.36411 -0.334582,0 -0.639102,-0.13318 -0.863118,-0.34958 -0.0056,-0.005 -0.01058,-0.01 -0.01587,-0.0145 -0.224943,-0.22496 -0.364116,-0.53573 -0.364116,-0.8789 0,-0.20105 -0.07865,-0.38298 -0.20655,-0.51631 l -0.01191,-0.0111 c -0.134886,-0.13488 -0.321403,-0.21841 -0.527398,-0.21841 -0.206682,0 -0.393146,0.0831 -0.527397,0.21741 v 0 c -0.134304,0.13421 -0.2174,0.32068 -0.2174,0.52737 0,0.33515 -0.133325,0.63965 -0.349799,0.86332 -0.0045,0.005 -0.0093,0.0106 -0.01429,0.0156 -0.224916,0.22494 -0.53576,0.36411 -0.878944,0.36411 -0.335163,0 -0.639656,-0.13332 -0.863329,-0.3498 -0.0053,-0.004 -0.01058,-0.009 -0.01561,-0.0143 -0.224943,-0.22495 -0.364117,-0.53576 -0.364117,-0.87889 0,-0.20669 -0.0831,-0.39316 -0.2173995,-0.52737 v 0 c -0.1342508,-0.13431 -0.3207167,-0.21741 -0.5273975,-0.21741 -0.2059687,0 -0.3925115,0.0835 -0.5273965,0.21841 v 0 0 c -0.134305,0.13422 -0.2174011,0.32069 -0.2174011,0.52737 0,0.34242 -0.1392519,0.65297 -0.3641156,0.87791 v 0 c -0.2249437,0.22486 -0.5354962,0.36411 -0.8779113,0.36411 -0.3345825,0 -0.6390747,-0.13318 -0.8630922,-0.34958 -0.0056,-0.005 -0.010852,-0.01 -0.015883,-0.0145 -0.2249147,-0.22495 -0.3641146,-0.53571 -0.3641146,-0.87889 0,-0.20105 -0.078626,-0.38299 -0.2065249,-0.51631 l -0.011913,-0.0111 c -0.134858,-0.13488 -0.3214027,-0.21841 -0.5273695,-0.21841 -0.2059947,0 -0.3925925,0.0835 -0.5274775,0.21841 v 0 0 c -0.1343049,0.13422 -0.2174001,0.32069 -0.2174001,0.52738 0,0.34318 -0.1391739,0.65394 -0.3641156,0.87888 v 0 c -0.2253678,0.22523 -0.5361334,0.36462 -0.8784144,0.36462 -0.3351376,0 -0.6396308,-0.13332 -0.8633023,-0.3498 -0.0053,-0.005 -0.010582,-0.009 -0.015613,-0.0143 -0.2249167,-0.22494 -0.3641166,-0.53576 -0.3641166,-0.87888 0,-0.20669 -0.083067,-0.39316 -0.2173732,-0.52738 v 0 c -0.1342248,-0.1343 -0.3206895,-0.2174 -0.5273715,-0.2174 -0.2059947,0 -0.3925115,0.0835 -0.5273985,0.21841 v 0 0 c -0.13433089,0.13422 -0.21740014,0.32068 -0.21740014,0.52737 z m 0,3.98671 c 0,0.13727 -0.11136012,0.2486 -0.24862762,0.2486 -0.1372675,0 -0.24860162,-0.11133 -0.24860162,-0.2486 0,-0.34228 0.13938494,-0.65304 0.3645927,-0.87841 v 0 c 0.2249157,-0.22494 0.53570713,-0.36411 0.87889043,-0.36411 0.341965,0 0.6525975,0.13917 0.8778843,0.36411 v 0 0 0 c 0.2245186,0.22529 0.3634014,0.5355 0.3634014,0.87714 0,0.20669 0.083097,0.39315 0.2174002,0.52738 v 0 0 c 0.13486,0.13488 0.3214027,0.21838 0.5273715,0.21838 0.2066819,0 0.3931466,-0.083 0.5273975,-0.21738 v 0 c 0.1343299,-0.13423 0.2174001,-0.32068 0.2174001,-0.52737 0,-0.34228 0.139385,-0.65304 0.3646187,-0.87841 v 0 c 0.2249427,-0.22495 0.5357863,-0.36411 0.8789695,-0.36411 0.3431833,0 0.6539478,0.13916 0.8788905,0.36411 0.005,0.005 0.0098,0.0103 0.014553,0.0159 0.216421,0.22402 0.3495866,0.52851 0.3495866,0.86312 0,0.20669 0.083097,0.39315 0.2174002,0.52737 v 0 c 0.1342248,0.13431 0.3206895,0.21738 0.5273715,0.21738 0.2059947,0 0.3925115,-0.0835 0.5273975,-0.21838 l 0.011912,-0.0111 c 0.1278996,-0.13333 0.2065499,-0.31527 0.2065499,-0.51631 0,-0.34229 0.139386,-0.65305 0.3646187,-0.87842 v 0 c 0.2249417,-0.22494 0.5357073,-0.36409 0.8788905,-0.36409 0.341992,0 0.6526244,0.13915 0.8779124,0.36409 v 0 0 0 c 0.224492,0.22531 0.363401,0.5355 0.363401,0.87715 0,0.20668 0.08307,0.39314 0.2174,0.5274 v 0 0 c 0.134886,0.13485 0.321403,0.21835 0.527398,0.21835 0.205967,0 0.392564,-0.0835 0.52745,-0.21835 l 0.01191,-0.0111 c 0.127926,-0.13332 0.20655,-0.31527 0.20655,-0.51631 0,-0.34199 0.139173,-0.65262 0.364116,-0.87791 v 0 0 0 c 0.225287,-0.22452 0.535495,-0.3634 0.877117,-0.3634 0.343182,0 0.653948,0.13917 0.878891,0.36412 0.005,0.005 0.01005,0.0103 0.01455,0.0159 0.216394,0.22402 0.349588,0.52851 0.349588,0.86312 0,0.20669 0.08307,0.39314 0.217398,0.52737 v 0 c 0.134252,0.13431 0.320717,0.21738 0.527399,0.21738 0.205968,0 0.392511,-0.0835 0.527371,-0.21838 l 0.01191,-0.0111 c 0.1279,-0.13332 0.206551,-0.31526 0.206551,-0.51631 0,-0.13729 0.111333,-0.24862 0.2486,-0.24862 0.13727,0 0.248628,0.11133 0.248628,0.24862 0,0.33458 -0.133192,0.63908 -0.349614,0.86309 -0.0045,0.006 -0.0095,0.0109 -0.01455,0.0159 -0.224941,0.22491 -0.535706,0.36408 -0.878888,0.36408 -0.341701,0 -0.651778,-0.13888 -0.877144,-0.36339 v 0 0 0 c -0.224943,-0.22529 -0.364116,-0.53593 -0.364116,-0.8779 0,-0.20104 -0.07865,-0.38301 -0.20655,-0.51632 l -0.01191,-0.0111 c -0.134886,-0.13488 -0.321403,-0.21838 -0.527398,-0.21838 -0.206682,0 -0.393146,0.0831 -0.527397,0.2174 v 0 c -0.134304,0.13426 -0.2174,0.3207 -0.2174,0.5274 0,0.33458 -0.133193,0.63906 -0.349588,0.86307 -0.0045,0.006 -0.0095,0.0109 -0.01455,0.0159 -0.224919,0.22491 -0.535761,0.36408 -0.878942,0.36408 -0.343184,0 -0.653948,-0.13917 -0.878891,-0.36408 v 0 c -0.225208,-0.22537 -0.364596,-0.53614 -0.364596,-0.8784 0,-0.20668 -0.0831,-0.39314 -0.2174003,-0.52739 v 0 c -0.1342578,-0.1345 -0.3207215,-0.21757 -0.5274044,-0.21757 -0.2059678,0 -0.3925115,0.0835 -0.5273975,0.21838 v 0 0 c -0.1343039,0.13425 -0.2174002,0.32071 -0.2174002,0.52739 0,0.33459 -0.1331927,0.63909 -0.3495866,0.8631 -0.0045,0.006 -0.0095,0.0108 -0.014553,0.0159 -0.2249167,0.22492 -0.5357082,0.36408 -0.8788905,0.36408 -0.3417009,0 -0.6517513,-0.13887 -0.8771171,-0.36339 v 0 0 0 c -0.2249167,-0.22528 -0.3641156,-0.53592 -0.3641156,-0.87788 0,-0.20106 -0.078626,-0.38302 -0.2065239,-0.51633 l -0.011913,-0.0111 c -0.13486,-0.13487 -0.3214037,-0.21837 -0.5273715,-0.21837 -0.2059947,0 -0.3925895,0.0835 -0.5274765,0.21837 v 0 0 c -0.1343039,0.13426 -0.2174011,0.32072 -0.2174011,0.5274 0,0.3417 -0.1388819,0.65176 -0.3634015,0.87713 v 0 0 0 c -0.2252857,0.22491 -0.5359182,0.36408 -0.8779103,0.36408 -0.3431833,0 -0.6539477,-0.13917 -0.8788904,-0.36408 v 0 c -0.2252059,-0.22539 -0.3646178,-0.53616 -0.3646178,-0.87842 0,-0.20668 -0.083067,-0.39314 -0.2173741,-0.5274 v 0 c -0.1342239,-0.13432 -0.3206886,-0.21739 -0.5273706,-0.21739 -0.2059948,0 -0.3925114,0.0835 -0.52739742,0.21837 v 0 0 c -0.1343309,0.13426 -0.21740114,0.32072 -0.21740114,0.5274 z m 0,3.9867 c 0,0.13727 -0.11136012,0.24863 -0.24862762,0.24863 -0.1372675,0 -0.24860162,-0.11136 -0.24860162,-0.24863 0,-0.34318 0.1391739,-0.65394 0.3641166,-0.87888 0.2249157,-0.22495 0.53570713,-0.36412 0.87888943,-0.36412 0.3422571,0 0.6530216,0.13938 0.8783874,0.36462 v 0 c 0.2249167,0.22494 0.3640896,0.5357 0.3640896,0.87889 0,0.20668 0.083097,0.39314 0.2174001,0.52739 v 0 0 c 0.13486,0.13487 0.3214037,0.21839 0.5273715,0.21839 0.2066829,0 0.3931466,-0.0831 0.5273975,-0.21741 v 0 c 0.1343309,-0.13425 0.2174002,-0.32072 0.2174002,-0.5274 0,-0.34246 0.1392529,-0.65296 0.3641156,-0.8779 v 0 0 c 0.2249427,-0.22495 0.5357872,-0.36412 0.8789705,-0.36412 0.3431032,0 0.6539468,0.13917 0.8788895,0.36412 0.005,0.005 0.0098,0.0103 0.014293,0.0156 0.216474,0.22365 0.3497997,0.52816 0.3497997,0.8633 0,0.20668 0.083097,0.39315 0.2174001,0.5274 v 0 c 0.1342239,0.1343 0.3206886,0.2174 0.5273705,0.2174 0.2059948,0 0.3925115,-0.0835 0.5273985,-0.21838 l 0.011912,-0.0111 c 0.1278995,-0.13333 0.2065499,-0.3153 0.2065499,-0.51634 0,-0.34318 0.1391729,-0.65394 0.3641156,-0.87889 0.2249427,-0.22495 0.5357072,-0.36412 0.8788905,-0.36412 0.342256,0 0.6530484,0.13939 0.8783874,0.36462 v 0 c 0.224942,0.22495 0.364115,0.53571 0.364115,0.87889 0,0.20668 0.08307,0.39315 0.217401,0.5274 v 0 0 c 0.134886,0.13486 0.321403,0.21838 0.527398,0.21838 0.205968,0 0.392564,-0.0835 0.52745,-0.21838 l 0.01191,-0.0111 c 0.127926,-0.13333 0.20655,-0.3153 0.20655,-0.51634 0,-0.34318 0.139174,-0.65394 0.364115,-0.87889 0.005,-0.005 0.01032,-0.01 0.01587,-0.0145 0.224015,-0.21643 0.528509,-0.34962 0.863092,-0.34962 0.343103,0 0.653947,0.13919 0.878887,0.36413 0.005,0.005 0.0098,0.0103 0.01429,0.0156 0.216473,0.22366 0.349799,0.52817 0.349799,0.8633 0,0.20669 0.08307,0.39316 0.2174,0.5274 v 0 c 0.13425,0.13431 0.320716,0.2174 0.527397,0.2174 0.205968,0 0.392511,-0.0835 0.527372,-0.21838 l 0.01191,-0.0111 c 0.1279,-0.13333 0.206549,-0.3153 0.206549,-0.51634 0,-0.13727 0.111334,-0.2486 0.248603,-0.2486 0.137269,0 0.248627,0.11133 0.248627,0.2486 0,0.33458 -0.133192,0.63907 -0.349613,0.86312 -0.0045,0.006 -0.0095,0.0106 -0.01455,0.0159 -0.224942,0.22495 -0.535706,0.36412 -0.878889,0.36412 -0.341701,0 -0.651778,-0.13891 -0.877145,-0.3634 v 0 0 0 c -0.224941,-0.22528 -0.364114,-0.53592 -0.364114,-0.87791 0,-0.20075 -0.07892,-0.38299 -0.207187,-0.5169 l -0.01111,-0.0106 c -0.134887,-0.13486 -0.321483,-0.21834 -0.527398,-0.21834 -0.201046,0 -0.382985,0.0786 -0.516335,0.20651 l -0.01111,0.0119 c -0.13486,0.13489 -0.218379,0.32143 -0.218379,0.5274 0,0.33458 -0.133193,0.63907 -0.349589,0.86312 -0.0045,0.006 -0.0095,0.0106 -0.01455,0.0159 -0.224916,0.22495 -0.53576,0.36412 -0.878943,0.36412 -0.343182,0 -0.653948,-0.13917 -0.87889,-0.36412 v 0 c -0.225207,-0.22533 -0.36459,-0.53613 -0.36459,-0.87838 0,-0.20597 -0.08352,-0.39251 -0.2183822,-0.5274 v 0 0 c -0.1342518,-0.13431 -0.3207146,-0.2174 -0.5273965,-0.2174 -0.2059687,0 -0.3925115,0.0835 -0.5273985,0.21838 -0.134858,0.13489 -0.2183793,0.32143 -0.2183793,0.5274 0,0.33458 -0.1331927,0.63907 -0.3495866,0.86311 -0.0045,0.006 -0.0095,0.0106 -0.014553,0.0159 -0.2249167,0.22495 -0.5357083,0.36412 -0.8788895,0.36412 -0.341701,0 -0.6517523,-0.13891 -0.8771181,-0.36341 v 0 0 0 c -0.2249157,-0.22529 -0.3641146,-0.53592 -0.3641146,-0.87791 0,-0.20076 -0.078916,-0.38299 -0.207158,-0.5169 l -0.011112,-0.0106 c -0.13486,-0.13486 -0.3214817,-0.21838 -0.5273715,-0.21838 -0.2059947,0 -0.3925895,0.0835 -0.5274765,0.21838 v 0 c -0.1345429,0.13481 -0.2179022,0.32154 -0.2179022,0.52787 0,0.3417 -0.1388839,0.65178 -0.3634025,0.87712 v 0 0 0 c -0.2252868,0.22495 -0.5359193,0.36413 -0.8779113,0.36413 -0.3431832,0 -0.6539477,-0.13918 -0.8788905,-0.36412 v 0 c -0.2252047,-0.22535 -0.3646167,-0.53614 -0.3646167,-0.8784 0,-0.20596 -0.083497,-0.39251 -0.2183793,-0.5274 v 0 0 c -0.1342239,-0.1343 -0.3206886,-0.21739 -0.5273705,-0.21739 -0.2059948,0 -0.3925115,0.0835 -0.52739844,0.21837 -0.134886,0.13489 -0.21837934,0.32144 -0.21837934,0.5274 z" style="" fill="#000000" fill-rule="evenodd" stroke-width="0.2646383"/></g><text x="0" y="31.933334" fill="#000000" font-size="5px" font-weight="bold" font-family="'Helvetica Neue', Helvetica, Arial-Unicode, Arial, Sans-serif">Created by Alvida Biersack</text><text x="0" y="36.933334" fill="#000000" font-size="5px" font-weight="bold" font-family="'Helvetica Neue', Helvetica, Arial-Unicode, Arial, Sans-serif">from the Noun Project</text></svg>