<svg xmlns:dc="http://purl.org/dc/elements/1.1/" xmlns:cc="http://creativecommons.org/ns#" xmlns:rdf="http://www.w3.org/1999/02/22-rdf-syntax-ns#" xmlns:svg="http://www.w3.org/2000/svg" xmlns="http://www.w3.org/2000/svg" xmlns:sodipodi="http://sodipodi.sourceforge.net/DTD/sodipodi-0.dtd" xmlns:inkscape="http://www.inkscape.org/namespaces/inkscape" viewBox="0 0 16.933333 21.1666675" version="1.1" x="0px" y="0px"><g transform="translate(0,-280.06665)"><path d="m 14.30266,290.87627 c 0.09939,-0.094 0.256331,-0.0897 0.350354,0.01 0.094,0.0994 0.08962,0.25635 -0.0098,0.35035 -0.540259,0.51125 -1.102093,0.78799 -1.687653,0.79861 -0.530307,0.01 -1.06579,-0.19871 -1.60658,-0.64808 -0.540763,0.44937 -1.076246,0.65774 -1.6065529,0.64808 -0.524389,-0.01 -1.029724,-0.23239 -1.517359,-0.64589 -0.48782,0.4135 -0.993129,0.63641 -1.517439,0.64589 -0.530334,0.01 -1.065816,-0.19871 -1.60658,-0.64808 -0.540764,0.44937 -1.076246,0.65774 -1.606579,0.64808 -0.585692,-0.0106 -1.147526,-0.28736 -1.687654,-0.79861 -0.09939,-0.094 -0.103763,-0.25097 -0.0098,-0.35035 0.094,-0.0994 0.250943,-0.10374 0.350328,-0.01 0.448543,0.42453 0.900246,0.654 1.354841,0.66228 0.454886,0.008 0.931109,-0.20485 1.430421,-0.66525 0.09415,-0.0868 0.240911,-0.0882 0.336766,0 0.499311,0.4604 0.975534,0.67358 1.430422,0.66525 0.454169,-0.008 0.905446,-0.23733 1.35362,-0.66109 0.09474,-0.091 0.245396,-0.0925 0.341886,0 0.448518,0.42453 0.900221,0.654 1.354816,0.66229 0.4548859,0.008 0.9311089,-0.20486 1.4304199,-0.66526 0.09415,-0.0868 0.240938,-0.0882 0.336793,0 0.499311,0.4604 0.975455,0.67358 1.430395,0.66526 0.454541,-0.008 0.906244,-0.23776 1.354841,-0.66229 z M 2.8755331,284.67263 c 0,-0.1376 0.111619,-0.24919 0.249219,-0.24919 0.137572,0 0.24919,0.11159 0.24919,0.24919 v 0.14012 h 0.140147 c 0.137573,0 0.249191,0.11161 0.249191,0.24922 0,0.1376 -0.111618,0.24918 -0.249191,0.24918 h -0.140147 v 0.14015 c 0,0.13758 -0.111618,0.24919 -0.24919,0.24919 -0.1376,0 -0.249219,-0.11161 -0.249219,-0.24919 v -0.14015 h -0.14012 c -0.137599,0 -0.249218,-0.11158 -0.249218,-0.24918 0,-0.13761 0.111619,-0.24922 0.249218,-0.24922 h 0.14012 z m 2.709895,-0.40495 c 0,-0.13759 0.111592,-0.24921 0.249191,-0.24921 0.137599,0 0.249191,0.11162 0.249191,0.24921 v 0.14012 h 0.140147 c 0.137599,0 0.249191,0.11163 0.249191,0.24922 0,0.13757 -0.111592,0.2492 -0.249191,0.2492 h -0.140147 v 0.14012 c 0,0.13759 -0.111592,0.24922 -0.249191,0.24922 -0.137599,0 -0.249191,-0.11163 -0.249191,-0.24922 v -0.14012 h -0.140147 c -0.137599,0 -0.249192,-0.11163 -0.249192,-0.2492 0,-0.13759 0.111593,-0.24922 0.249192,-0.24922 h 0.140147 z m -2.289321,-2.36723 c 0,-0.1376 0.111591,-0.24919 0.249191,-0.24919 0.137599,0 0.24919,0.11159 0.24919,0.24919 v 0.14014 h 0.140148 c 0.137599,0 0.249191,0.1116 0.249191,0.2492 0,0.13759 -0.111592,0.24919 -0.249191,0.24919 h -0.140148 v 0.14015 c 0,0.13759 -0.111591,0.24919 -0.24919,0.24919 -0.1376,0 -0.249191,-0.1116 -0.249191,-0.24919 v -0.14015 h -0.140147 c -0.137599,0 -0.249191,-0.1116 -0.249191,-0.24919 0,-0.1376 0.111592,-0.2492 0.249191,-0.2492 h 0.140147 z m -1.489256,14.03724 c -0.09939,-0.094 -0.103764,-0.25095 -0.0098,-0.35033 0.094,-0.0994 0.250943,-0.10376 0.350328,-0.01 0.448543,0.42452 0.900246,0.65399 1.354841,0.66227 0.454886,0.008 0.93103,-0.20492 1.430421,-0.66522 0.09586,-0.0883 0.24261,-0.0869 0.336766,0 0.499391,0.4603 0.975534,0.67348 1.430422,0.66522 0.454594,-0.008 0.906296,-0.23775 1.354894,-0.66227 0.09649,-0.0913 0.247147,-0.0898 0.341887,0 0.448093,0.42373 0.899371,0.65277 1.35354,0.66105 0.4548879,0.008 0.9310319,-0.20493 1.4304219,-0.66523 0.09586,-0.0883 0.242636,-0.0869 0.336794,0 0.499363,0.4603 0.975534,0.67348 1.430394,0.66523 0.454541,-0.008 0.906243,-0.23775 1.354841,-0.66228 0.09939,-0.094 0.25633,-0.0897 0.350354,0.01 0.09399,0.0994 0.08962,0.25633 -0.0098,0.35032 -0.540258,0.51126 -1.102094,0.788 -1.687653,0.79861 -0.530307,0.01 -1.06579,-0.19869 -1.60658,-0.64807 -0.540763,0.44938 -1.076246,0.65768 -1.6065539,0.64807 -0.52439,-0.01 -1.029725,-0.23239 -1.517361,-0.64588 -0.487819,0.41349 -0.993127,0.63641 -1.517438,0.64588 -0.530333,0.01 -1.065816,-0.19869 -1.60658,-0.64807 -0.540764,0.44938 -1.076246,0.65768 -1.606579,0.64807 -0.585693,-0.0106 -1.147527,-0.28735 -1.687653,-0.79861 z M 14.30266,293.2269 c 0.09939,-0.094 0.256331,-0.0896 0.350354,0.01 0.094,0.0994 0.08962,0.25634 -0.0098,0.35033 -0.540259,0.51125 -1.102093,0.78802 -1.687653,0.7986 -0.530307,0.01 -1.06579,-0.19868 -1.60658,-0.64808 -0.540763,0.4494 -1.076246,0.65774 -1.6065529,0.64808 -0.524389,-0.01 -1.029724,-0.23238 -1.517359,-0.64587 -0.48782,0.41349 -0.993129,0.6364 -1.517439,0.64587 -0.530334,0.01 -1.065816,-0.19868 -1.60658,-0.64808 -0.540764,0.4494 -1.076246,0.65774 -1.606579,0.64808 -0.585693,-0.0106 -1.147527,-0.28735 -1.687655,-0.7986 -0.09939,-0.094 -0.103763,-0.25095 -0.0098,-0.35033 0.094,-0.0994 0.250943,-0.10376 0.350328,-0.01 0.448543,0.42452 0.900246,0.65399 1.354841,0.66227 0.454885,0.008 0.931108,-0.20484 1.430421,-0.66522 0.09415,-0.0868 0.240911,-0.0883 0.336766,0 0.499311,0.46038 0.975534,0.67356 1.430421,0.66522 0.45417,-0.008 0.905447,-0.23733 1.35362,-0.66106 0.09474,-0.091 0.245397,-0.0925 0.341887,0 0.448518,0.42453 0.90022,0.654 1.354815,0.66229 0.4548859,0.008 0.9311099,-0.20486 1.4304209,-0.66523 0.09415,-0.0868 0.240938,-0.0883 0.336793,0 0.499311,0.46037 0.975455,0.67355 1.430395,0.66523 0.454541,-0.008 0.906244,-0.23776 1.354841,-0.66229 z m -2.570941,-12.89566 c 0.958709,0 1.826897,0.38869 2.455236,1.01706 0.628313,0.62836 1.017067,1.49645 1.017067,2.45524 0,0.95871 -0.388754,1.82687 -1.017067,2.45524 -0.628339,0.62828 -1.496527,1.01706 -2.455236,1.01706 -0.188579,0 -0.376839,-0.016 -0.56295,-0.0462 -0.187252,-0.0306 -0.369832,-0.0762 -0.545858,-0.13561 -0.130036,-0.0435 -0.200256,-0.18436 -0.156733,-0.31439 0.02575,-0.0768 0.0854,-0.1328 0.156733,-0.15674 0.595935,-0.20073 1.107693,-0.58564 1.467495,-1.08683 0.349504,-0.48681 0.555332,-1.08509 0.555332,-1.73253 0,-0.64742 -0.205828,-1.24569 -0.555332,-1.7325 -0.359802,-0.50123 -0.87156,-0.8861 -1.467495,-1.08686 -0.130036,-0.0435 -0.200256,-0.18437 -0.156733,-0.3144 0.02575,-0.0768 0.0854,-0.13277 0.156733,-0.15674 v 0 c 0.175655,-0.0593 0.35789,-0.10474 0.544797,-0.13525 0.18611,-0.0303 0.374371,-0.0462 0.562949,-0.0462 z m 2.102918,1.36937 c -0.538162,-0.53815 -1.281728,-0.87097 -2.102918,-0.87097 -0.08561,0 -0.169578,0.003 -0.251872,0.0101 0.397592,0.24306 0.742558,0.56387 1.013457,0.94128 0.409614,0.57051 0.650816,1.26909 0.650816,2.02253 0,0.75346 -0.241202,1.45202 -0.650816,2.02253 -0.270899,0.37735 -0.615733,0.69808 -1.013404,0.9412 0.08224,0.007 0.166287,0.01 0.251819,0.01 0.82119,0 1.564835,-0.33297 2.102918,-0.871 0.538031,-0.53808 0.871002,-1.28173 0.871002,-2.10292 0,-0.82127 -0.332971,-1.56483 -0.871002,-2.10292 z" style="" fill="#000000" fill-rule="evenodd" stroke-width="0.26537934"/></g><text x="0" y="31.933334" fill="#000000" font-size="5px" font-weight="bold" font-family="'Helvetica Neue', Helvetica, Arial-Unicode, Arial, Sans-serif">Created by Alvida Biersack</text><text x="0" y="36.933334" fill="#000000" font-size="5px" font-weight="bold" font-family="'Helvetica Neue', Helvetica, Arial-Unicode, Arial, Sans-serif">from the Noun Project</text></svg>