<svg xmlns:dc="http://purl.org/dc/elements/1.1/" xmlns:cc="http://creativecommons.org/ns#" xmlns:rdf="http://www.w3.org/1999/02/22-rdf-syntax-ns#" xmlns:svg="http://www.w3.org/2000/svg" xmlns="http://www.w3.org/2000/svg" xmlns:sodipodi="http://sodipodi.sourceforge.net/DTD/sodipodi-0.dtd" xmlns:inkscape="http://www.inkscape.org/namespaces/inkscape" viewBox="0 0 16.933333 21.1666675" version="1.1" x="0px" y="0px"><g transform="translate(0,-280.06665)"><path d="m 4.246894,292.82729 c -0.09651,-0.0295 -0.197089,-0.0676 -0.301956,-0.11532 -0.105034,-0.0477 -0.21675,-0.10646 -0.335533,-0.17743 -0.598364,-0.35762 -1.216276,-0.003 -1.606229,0.21999 -0.179624,0.10295 -0.321533,0.18427 -0.449554,0.195 -0.120529,0.01 -0.226411,-0.0798 -0.23627,-0.20035 -0.0099,-0.12054 0.07982,-0.22639 0.200356,-0.23627 0.03098,-0.003 0.135627,-0.0626 0.268015,-0.13847 0.475582,-0.27255 1.229065,-0.70433 2.047953,-0.21489 0.02921,0.0175 0.05802,0.0341 0.08653,0.0499 l -1.269795,-3.21441 c -0.01212,-0.0274 -0.01888,-0.0573 -0.01888,-0.0889 0,-0.12104 0.09817,-0.21917 0.219201,-0.21917 H 8.24784 v -1.16491 H 3.795613 v 0 c -0.04287,0 -0.08617,-0.0123 -0.124134,-0.0387 -0.09926,-0.0686 -0.124191,-0.20463 -0.05566,-0.30392 l 4.661594,-6.73905 c 0.03794,-0.0653 0.108643,-0.1092 0.189597,-0.1092 0.121036,0 0.2192,0.0981 0.2192,0.21918 v 6.7532 1.38407 h 5.397024 v 1.2e-4 c 0.02675,0 0.05405,0.004 0.08047,0.0152 0.112445,0.0444 0.167682,0.17171 0.123262,0.28417 l -1.176955,2.97942 c 0.0674,-0.0183 0.13712,-0.0322 0.21013,-0.04 0.268127,-0.0289 0.56169,0.0251 0.910602,0.23354 0.165006,0.0987 0.37891,0.18965 0.595858,0.25614 0.206693,0.0633 0.411838,0.10358 0.57428,0.1055 0.120529,0 0.217144,0.10039 0.215791,0.22086 0,0.12054 -0.100328,0.21715 -0.220861,0.2158 -0.206018,-0.003 -0.4544,-0.0499 -0.697571,-0.12439 -0.248635,-0.0762 -0.496763,-0.18236 -0.691796,-0.29889 -0.255198,-0.15258 -0.459808,-0.19303 -0.64008,-0.17366 -0.185766,0.02 -0.36477,0.10582 -0.548225,0.20026 h -0.0028 c -0.380854,0.19587 -0.698557,0.33231 -1.055413,0.34958 -0.359051,0.0175 -0.735286,-0.0879 -1.219684,-0.37741 -0.531748,-0.3178 -0.875815,-0.13682 -1.244726,0.0573 -0.543663,0.28619 -1.130084,0.5947 -2.220987,-0.0573 -0.504283,-0.30135 -0.876969,-0.12341 -1.272245,0.0653 -0.430035,0.20531 -0.881815,0.42101 -1.534147,0.23421 l 5.6e-5,-2.6e-4 h -0.0031 l -0.0065,-0.003 z m 4.000981,-5.74361 v -5.83308 l -4.034979,5.83308 z m 7.153048,9.21512 c 0.120529,0 0.217143,0.10029 0.215791,0.22087 0,0.12052 -0.100338,0.21713 -0.220862,0.21576 -0.206017,-0.003 -0.4544,-0.0499 -0.697571,-0.12439 -0.248634,-0.0762 -0.496763,-0.18233 -0.691795,-0.29889 -0.527889,-0.31559 -0.875618,-0.13549 -1.248247,0.0576 -0.54679,0.28329 -1.136309,0.5887 -2.217438,-0.0576 -0.531747,-0.31779 -0.875814,-0.13681 -1.244725,0.0574 -0.543662,0.28615 -1.130083,0.59467 -2.220986,-0.0574 -0.527946,-0.31559 -0.875618,-0.13549 -1.248191,0.0576 -0.546845,0.28329 -1.136309,0.5887 -2.217494,-0.0576 -0.598364,-0.35759 -1.216276,-0.003 -1.606229,0.21999 -0.179624,0.10295 -0.321533,0.18428 -0.449554,0.19503 -0.120529,0.01 -0.226411,-0.0798 -0.23627,-0.20035 -0.0099,-0.12053 0.07982,-0.22642 0.200356,-0.23628 0.03098,-0.003 0.135627,-0.0626 0.268015,-0.13849 0.475582,-0.27255 1.229065,-0.70433 2.047953,-0.21489 0.871843,0.52112 1.34965,0.27353 1.792923,0.0439 0.48392,-0.25072 0.935446,-0.48471 1.67279,-0.0439 0.879842,0.52583 1.353677,0.2766 1.792922,0.0454 0.48116,-0.25323 0.929897,-0.48935 1.672761,-0.0454 0.871758,0.52112 1.34965,0.27353 1.792867,0.0439 0.483976,-0.25072 0.935559,-0.48471 1.672845,-0.0439 0.165006,0.0987 0.378911,0.18968 0.595857,0.25615 0.206694,0.0632 0.411838,0.10359 0.574282,0.1055 z m -2.858645,-4.08777 1.218925,-3.08573 H 8.467047 3.172836 l 1.307765,3.31051 c 0.448625,0.0957 0.799198,-0.0716 1.133886,-0.23148 0.503468,-0.24038 0.97826,-0.46708 1.684902,-0.0448 0.879842,0.52583 1.353677,0.27658 1.792922,0.0454 0.48116,-0.25323 0.929897,-0.48939 1.672761,-0.0454 0.40291,0.24072 0.702471,0.32895 0.974908,0.31579 0.254016,-0.0121 0.504397,-0.11439 0.802298,-0.2643 z" style="" fill="#000000" fill-rule="evenodd" stroke-width="0.28167593"/></g><text x="0" y="31.933334" fill="#000000" font-size="5px" font-weight="bold" font-family="'Helvetica Neue', Helvetica, Arial-Unicode, Arial, Sans-serif">Created by Alvida Biersack</text><text x="0" y="36.933334" fill="#000000" font-size="5px" font-weight="bold" font-family="'Helvetica Neue', Helvetica, Arial-Unicode, Arial, Sans-serif">from the Noun Project</text></svg>